<?xml version="1.0" encoding="UTF-8" standalone="no"?>
<!DOCTYPE svg PUBLIC "-//W3C//DTD SVG 1.1//EN"
 "http://www.w3.org/Graphics/SVG/1.1/DTD/svg11.dtd">
<!-- Generated by graphviz version 2.40.1 (20161225.0304)
 -->
<!-- Title: snakemake_dag Pages: 1 -->
<svg width="1269pt" height="476pt"
 viewBox="0.00 0.00 1269.00 476.00" xmlns="http://www.w3.org/2000/svg" xmlns:xlink="http://www.w3.org/1999/xlink">
<g id="graph0" class="graph" transform="scale(1 1) rotate(0) translate(4 472)">
<title>snakemake_dag</title>
<polygon fill="#ffffff" stroke="transparent" points="-4,4 -4,-472 1265,-472 1265,4 -4,4"/>
<!-- 0 -->
<g id="node1" class="node">
<title>0</title>
<path fill="none" stroke="#d6d856" stroke-width="2" stroke-dasharray="5,2" d="M631,-36C631,-36 601,-36 601,-36 595,-36 589,-30 589,-24 589,-24 589,-12 589,-12 589,-6 595,0 601,0 601,0 631,0 631,0 637,0 643,-6 643,-12 643,-12 643,-24 643,-24 643,-30 637,-36 631,-36"/>
<text text-anchor="middle" x="616" y="-15.5" font-family="sans" font-size="10.00" fill="#000000">all</text>
</g>
<!-- 1 -->
<g id="node2" class="node">
<title>1</title>
<path fill="none" stroke="#56a9d8" stroke-width="2" stroke-dasharray="5,2" d="M542,-180C542,-180 414,-180 414,-180 408,-180 402,-174 402,-168 402,-168 402,-156 402,-156 402,-150 408,-144 414,-144 414,-144 542,-144 542,-144 548,-144 554,-150 554,-156 554,-156 554,-168 554,-168 554,-174 548,-180 542,-180"/>
<text text-anchor="middle" x="478" y="-159.5" font-family="sans" font-size="10.00" fill="#000000">stringtie_ballgown</text>
</g>
<!-- 1&#45;&gt;0 -->
<g id="edge1" class="edge">
<title>1&#45;&gt;0</title>
<path fill="none" stroke="#c0c0c0" stroke-width="2" d="M480.8943,-143.7772C484.8602,-124.0333 493.6924,-92.6001 512,-72 529.8941,-51.8651 557.099,-38.1128 579.1965,-29.527"/>
<polygon fill="#c0c0c0" stroke="#c0c0c0" stroke-width="2" points="580.4526,-32.7942 588.6244,-26.0508 578.031,-26.2265 580.4526,-32.7942"/>
</g>
<!-- 10 -->
<g id="node11" class="node">
<title>10</title>
<path fill="none" stroke="#80d856" stroke-width="2" stroke-dasharray="5,2" d="M616.5,-108C616.5,-108 533.5,-108 533.5,-108 527.5,-108 521.5,-102 521.5,-96 521.5,-96 521.5,-84 521.5,-84 521.5,-78 527.5,-72 533.5,-72 533.5,-72 616.5,-72 616.5,-72 622.5,-72 628.5,-78 628.5,-84 628.5,-84 628.5,-96 628.5,-96 628.5,-102 622.5,-108 616.5,-108"/>
<text text-anchor="middle" x="575" y="-87.5" font-family="sans" font-size="10.00" fill="#000000">count_tables</text>
</g>
<!-- 1&#45;&gt;10 -->
<g id="edge27" class="edge">
<title>1&#45;&gt;10</title>
<path fill="none" stroke="#c0c0c0" stroke-width="2" d="M502.4772,-143.8314C514.5395,-134.8779 529.254,-123.9558 542.2686,-114.2955"/>
<polygon fill="#c0c0c0" stroke="#c0c0c0" stroke-width="2" points="544.587,-116.9335 550.5306,-108.1628 540.4148,-111.3127 544.587,-116.9335"/>
</g>
<!-- 2 -->
<g id="node3" class="node">
<title>2</title>
<path fill="none" stroke="#56a9d8" stroke-width="2" stroke-dasharray="5,2" d="M327,-180C327,-180 199,-180 199,-180 193,-180 187,-174 187,-168 187,-168 187,-156 187,-156 187,-150 193,-144 199,-144 199,-144 327,-144 327,-144 333,-144 339,-150 339,-156 339,-156 339,-168 339,-168 339,-174 333,-180 327,-180"/>
<text text-anchor="middle" x="263" y="-159.5" font-family="sans" font-size="10.00" fill="#000000">stringtie_ballgown</text>
</g>
<!-- 2&#45;&gt;0 -->
<g id="edge2" class="edge">
<title>2&#45;&gt;0</title>
<path fill="none" stroke="#c0c0c0" stroke-width="2" d="M259.443,-143.7869C256.6222,-123.4485 255.7396,-90.9106 274,-72 295.0221,-50.2293 494.6143,-29.2936 578.8169,-21.3518"/>
<polygon fill="#c0c0c0" stroke="#c0c0c0" stroke-width="2" points="579.333,-24.8189 588.9646,-20.405 578.6827,-17.8492 579.333,-24.8189"/>
</g>
<!-- 2&#45;&gt;10 -->
<g id="edge28" class="edge">
<title>2&#45;&gt;10</title>
<path fill="none" stroke="#c0c0c0" stroke-width="2" d="M339.3238,-144.3868C392.151,-132.1959 461.6412,-116.1597 511.4547,-104.6643"/>
<polygon fill="#c0c0c0" stroke="#c0c0c0" stroke-width="2" points="512.5013,-108.0149 521.4582,-102.3558 510.9272,-101.1941 512.5013,-108.0149"/>
</g>
<!-- 3 -->
<g id="node4" class="node">
<title>3</title>
<path fill="none" stroke="#56a9d8" stroke-width="2" stroke-dasharray="5,2" d="M712,-180C712,-180 584,-180 584,-180 578,-180 572,-174 572,-168 572,-168 572,-156 572,-156 572,-150 578,-144 584,-144 584,-144 712,-144 712,-144 718,-144 724,-150 724,-156 724,-156 724,-168 724,-168 724,-174 718,-180 712,-180"/>
<text text-anchor="middle" x="648" y="-159.5" font-family="sans" font-size="10.00" fill="#000000">stringtie_ballgown</text>
</g>
<!-- 3&#45;&gt;0 -->
<g id="edge3" class="edge">
<title>3&#45;&gt;0</title>
<path fill="none" stroke="#c0c0c0" stroke-width="2" d="M647.1097,-143.8283C645.9016,-125.4759 643.1397,-96.4262 637,-72 634.7793,-63.1652 631.5017,-53.8233 628.193,-45.4387"/>
<polygon fill="#c0c0c0" stroke="#c0c0c0" stroke-width="2" points="631.4008,-44.0367 624.3558,-36.1235 624.9284,-46.7028 631.4008,-44.0367"/>
</g>
<!-- 3&#45;&gt;10 -->
<g id="edge29" class="edge">
<title>3&#45;&gt;10</title>
<path fill="none" stroke="#c0c0c0" stroke-width="2" d="M629.579,-143.8314C620.8471,-135.219 610.2683,-124.7851 600.7577,-115.4048"/>
<polygon fill="#c0c0c0" stroke="#c0c0c0" stroke-width="2" points="602.9925,-112.6931 593.4151,-108.1628 598.077,-117.6769 602.9925,-112.6931"/>
</g>
<!-- 4 -->
<g id="node5" class="node">
<title>4</title>
<path fill="none" stroke="#56d8a9" stroke-width="2" stroke-dasharray="5,2" d="M453,-108C453,-108 295,-108 295,-108 289,-108 283,-102 283,-96 283,-96 283,-84 283,-84 283,-78 289,-72 295,-72 295,-72 453,-72 453,-72 459,-72 465,-78 465,-84 465,-84 465,-96 465,-96 465,-102 459,-108 453,-108"/>
<text text-anchor="middle" x="374" y="-87.5" font-family="sans" font-size="10.00" fill="#000000">gffcompare_transcripts</text>
</g>
<!-- 4&#45;&gt;0 -->
<g id="edge4" class="edge">
<title>4&#45;&gt;0</title>
<path fill="none" stroke="#c0c0c0" stroke-width="2" d="M434.7545,-71.9243C480.1237,-58.426 540.6642,-40.414 578.9993,-29.0085"/>
<polygon fill="#c0c0c0" stroke="#c0c0c0" stroke-width="2" points="580.131,-32.3235 588.7177,-26.117 578.1348,-25.6141 580.131,-32.3235"/>
</g>
<!-- 5 -->
<g id="node6" class="node">
<title>5</title>
<path fill="none" stroke="#d88556" stroke-width="2" stroke-dasharray="5,2" d="M792,-180C792,-180 754,-180 754,-180 748,-180 742,-174 742,-168 742,-168 742,-156 742,-156 742,-150 748,-144 754,-144 754,-144 792,-144 792,-144 798,-144 804,-150 804,-156 804,-156 804,-168 804,-168 804,-174 798,-180 792,-180"/>
<text text-anchor="middle" x="773" y="-159.5" font-family="sans" font-size="10.00" fill="#000000">fastqc</text>
</g>
<!-- 5&#45;&gt;0 -->
<g id="edge5" class="edge">
<title>5&#45;&gt;0</title>
<path fill="none" stroke="#c0c0c0" stroke-width="2" d="M753.1158,-143.7623C725.2755,-118.2272 674.5824,-71.7316 643.2467,-42.9906"/>
<polygon fill="#c0c0c0" stroke="#c0c0c0" stroke-width="2" points="645.4581,-40.2697 635.7227,-36.0896 640.7265,-45.4284 645.4581,-40.2697"/>
</g>
<!-- 8 -->
<g id="node9" class="node">
<title>8</title>
<path fill="none" stroke="#56d882" stroke-width="2" stroke-dasharray="5,2" d="M893,-108C893,-108 773,-108 773,-108 767,-108 761,-102 761,-96 761,-96 761,-84 761,-84 761,-78 767,-72 773,-72 773,-72 893,-72 893,-72 899,-72 905,-78 905,-84 905,-84 905,-96 905,-96 905,-102 899,-108 893,-108"/>
<text text-anchor="middle" x="833" y="-87.5" font-family="sans" font-size="10.00" fill="#000000">multiqc_of_fastqc</text>
</g>
<!-- 5&#45;&gt;8 -->
<g id="edge21" class="edge">
<title>5&#45;&gt;8</title>
<path fill="none" stroke="#c0c0c0" stroke-width="2" d="M788.1405,-143.8314C795.1217,-135.454 803.5391,-125.3531 811.1876,-116.1749"/>
<polygon fill="#c0c0c0" stroke="#c0c0c0" stroke-width="2" points="813.9425,-118.3362 817.6556,-108.4133 808.5649,-113.8548 813.9425,-118.3362"/>
</g>
<!-- 6 -->
<g id="node7" class="node">
<title>6</title>
<path fill="none" stroke="#d88556" stroke-width="2" stroke-dasharray="5,2" d="M872,-180C872,-180 834,-180 834,-180 828,-180 822,-174 822,-168 822,-168 822,-156 822,-156 822,-150 828,-144 834,-144 834,-144 872,-144 872,-144 878,-144 884,-150 884,-156 884,-156 884,-168 884,-168 884,-174 878,-180 872,-180"/>
<text text-anchor="middle" x="853" y="-159.5" font-family="sans" font-size="10.00" fill="#000000">fastqc</text>
</g>
<!-- 6&#45;&gt;0 -->
<g id="edge6" class="edge">
<title>6&#45;&gt;0</title>
<path fill="none" stroke="#c0c0c0" stroke-width="2" d="M821.5472,-147.2815C801.1156,-137.2188 774.2449,-123.0235 752,-108 731.3448,-94.0501 729.4073,-86.31 709,-72 690.9058,-59.312 669.6618,-46.8126 652.0491,-37.0399"/>
<polygon fill="#c0c0c0" stroke="#c0c0c0" stroke-width="2" points="653.657,-33.93 643.2058,-32.1915 650.2917,-40.068 653.657,-33.93"/>
</g>
<!-- 6&#45;&gt;8 -->
<g id="edge22" class="edge">
<title>6&#45;&gt;8</title>
<path fill="none" stroke="#c0c0c0" stroke-width="2" d="M847.9532,-143.8314C845.7906,-136.0463 843.2147,-126.7729 840.8152,-118.1347"/>
<polygon fill="#c0c0c0" stroke="#c0c0c0" stroke-width="2" points="844.1636,-117.1117 838.1148,-108.4133 837.419,-118.9852 844.1636,-117.1117"/>
</g>
<!-- 7 -->
<g id="node8" class="node">
<title>7</title>
<path fill="none" stroke="#d88556" stroke-width="2" stroke-dasharray="5,2" d="M952,-180C952,-180 914,-180 914,-180 908,-180 902,-174 902,-168 902,-168 902,-156 902,-156 902,-150 908,-144 914,-144 914,-144 952,-144 952,-144 958,-144 964,-150 964,-156 964,-156 964,-168 964,-168 964,-174 958,-180 952,-180"/>
<text text-anchor="middle" x="933" y="-159.5" font-family="sans" font-size="10.00" fill="#000000">fastqc</text>
</g>
<!-- 7&#45;&gt;0 -->
<g id="edge7" class="edge">
<title>7&#45;&gt;0</title>
<path fill="none" stroke="#c0c0c0" stroke-width="2" d="M934.6429,-143.6686C935.3849,-123.2216 933.1273,-90.5843 914,-72 877.4138,-36.4524 725.0854,-23.7689 653.4911,-19.7116"/>
<polygon fill="#c0c0c0" stroke="#c0c0c0" stroke-width="2" points="653.3041,-16.1965 643.1301,-19.153 652.9272,-23.1864 653.3041,-16.1965"/>
</g>
<!-- 7&#45;&gt;8 -->
<g id="edge23" class="edge">
<title>7&#45;&gt;8</title>
<path fill="none" stroke="#c0c0c0" stroke-width="2" d="M907.7658,-143.8314C895.212,-134.7927 879.8717,-123.7476 866.3609,-114.0198"/>
<polygon fill="#c0c0c0" stroke="#c0c0c0" stroke-width="2" points="868.3866,-111.1655 858.2261,-108.1628 864.2964,-116.8463 868.3866,-111.1655"/>
</g>
<!-- 8&#45;&gt;0 -->
<g id="edge8" class="edge">
<title>8&#45;&gt;0</title>
<path fill="none" stroke="#c0c0c0" stroke-width="2" d="M778.5218,-71.9243C739.2141,-58.8821 687.2063,-41.626 652.7297,-30.1868"/>
<polygon fill="#c0c0c0" stroke="#c0c0c0" stroke-width="2" points="653.655,-26.8062 643.0615,-26.9789 651.4505,-33.4501 653.655,-26.8062"/>
</g>
<!-- 9 -->
<g id="node10" class="node">
<title>9</title>
<path fill="none" stroke="#56d8d8" stroke-width="2" stroke-dasharray="5,2" d="M266.5,-396C266.5,-396 153.5,-396 153.5,-396 147.5,-396 141.5,-390 141.5,-384 141.5,-384 141.5,-372 141.5,-372 141.5,-366 147.5,-360 153.5,-360 153.5,-360 266.5,-360 266.5,-360 272.5,-360 278.5,-366 278.5,-372 278.5,-372 278.5,-384 278.5,-384 278.5,-390 272.5,-396 266.5,-396"/>
<text text-anchor="middle" x="210" y="-375.5" font-family="sans" font-size="10.00" fill="#000000">multiqc_of_hisat</text>
</g>
<!-- 9&#45;&gt;0 -->
<g id="edge9" class="edge">
<title>9&#45;&gt;0</title>
<path fill="none" stroke="#c0c0c0" stroke-width="2" d="M155.7039,-359.98C138.0824,-351.6218 120.0015,-339.9197 108,-324 83.3901,-291.3555 89,-274.8816 89,-234 89,-234 89,-234 89,-162 89,-60.3795 458.2368,-27.9882 578.5771,-20.1299"/>
<polygon fill="#c0c0c0" stroke="#c0c0c0" stroke-width="2" points="579.0171,-23.6092 588.7759,-19.4842 578.5747,-16.6231 579.0171,-23.6092"/>
</g>
<!-- 10&#45;&gt;0 -->
<g id="edge10" class="edge">
<title>10&#45;&gt;0</title>
<path fill="none" stroke="#c0c0c0" stroke-width="2" d="M585.346,-71.8314C589.9237,-63.7925 595.4052,-54.1666 600.4588,-45.2918"/>
<polygon fill="#c0c0c0" stroke="#c0c0c0" stroke-width="2" points="603.6077,-46.8351 605.5147,-36.4133 597.5248,-43.3712 603.6077,-46.8351"/>
</g>
<!-- 11 -->
<g id="node12" class="node">
<title>11</title>
<path fill="none" stroke="#d85656" stroke-width="2" stroke-dasharray="5,2" d="M426.5,-252C426.5,-252 321.5,-252 321.5,-252 315.5,-252 309.5,-246 309.5,-240 309.5,-240 309.5,-228 309.5,-228 309.5,-222 315.5,-216 321.5,-216 321.5,-216 426.5,-216 426.5,-216 432.5,-216 438.5,-222 438.5,-228 438.5,-228 438.5,-240 438.5,-240 438.5,-246 432.5,-252 426.5,-252"/>
<text text-anchor="middle" x="374" y="-231.5" font-family="sans" font-size="10.00" fill="#000000">stringtie_merge</text>
</g>
<!-- 11&#45;&gt;1 -->
<g id="edge11" class="edge">
<title>11&#45;&gt;1</title>
<path fill="none" stroke="#c0c0c0" stroke-width="2" d="M400.2436,-215.8314C413.2995,-206.7927 429.2535,-195.7476 443.3047,-186.0198"/>
<polygon fill="#c0c0c0" stroke="#c0c0c0" stroke-width="2" points="445.5351,-188.7326 451.7648,-180.1628 441.5506,-182.9773 445.5351,-188.7326"/>
</g>
<!-- 11&#45;&gt;2 -->
<g id="edge13" class="edge">
<title>11&#45;&gt;2</title>
<path fill="none" stroke="#c0c0c0" stroke-width="2" d="M345.99,-215.8314C331.9239,-206.7074 314.706,-195.539 299.6067,-185.7449"/>
<polygon fill="#c0c0c0" stroke="#c0c0c0" stroke-width="2" points="301.2953,-182.6684 291.001,-180.1628 297.486,-188.5412 301.2953,-182.6684"/>
</g>
<!-- 11&#45;&gt;3 -->
<g id="edge15" class="edge">
<title>11&#45;&gt;3</title>
<path fill="none" stroke="#c0c0c0" stroke-width="2" d="M438.5872,-217.0282C477.6955,-206.7515 527.8517,-193.5718 569.273,-182.6874"/>
<polygon fill="#c0c0c0" stroke="#c0c0c0" stroke-width="2" points="570.2744,-186.0431 579.0565,-180.1165 568.4953,-179.273 570.2744,-186.0431"/>
</g>
<!-- 11&#45;&gt;4 -->
<g id="edge17" class="edge">
<title>11&#45;&gt;4</title>
<path fill="none" stroke="#c0c0c0" stroke-width="2" d="M374,-215.7623C374,-191.201 374,-147.2474 374,-118.3541"/>
<polygon fill="#c0c0c0" stroke="#c0c0c0" stroke-width="2" points="377.5001,-118.0896 374,-108.0896 370.5001,-118.0897 377.5001,-118.0896"/>
</g>
<!-- 12 -->
<g id="node13" class="node">
<title>12</title>
<path fill="none" stroke="#5682d8" stroke-width="2" stroke-dasharray="5,2" d="M399,-396C399,-396 309,-396 309,-396 303,-396 297,-390 297,-384 297,-384 297,-372 297,-372 297,-366 303,-360 309,-360 309,-360 399,-360 399,-360 405,-360 411,-366 411,-372 411,-372 411,-384 411,-384 411,-390 405,-396 399,-396"/>
<text text-anchor="middle" x="354" y="-375.5" font-family="sans" font-size="10.00" fill="#000000">samtools_sort</text>
</g>
<!-- 12&#45;&gt;1 -->
<g id="edge12" class="edge">
<title>12&#45;&gt;1</title>
<path fill="none" stroke="#c0c0c0" stroke-width="2" d="M411.2069,-366.9848C480.3445,-353.4011 588.2222,-331.2223 594,-324 631.9399,-276.5751 563.2773,-218.0024 516.3889,-185.8797"/>
<polygon fill="#c0c0c0" stroke="#c0c0c0" stroke-width="2" points="518.1724,-182.8616 507.9178,-180.1981 514.2733,-188.6751 518.1724,-182.8616"/>
</g>
<!-- 21 -->
<g id="node22" class="node">
<title>21</title>
<path fill="none" stroke="#d8ac56" stroke-width="2" stroke-dasharray="5,2" d="M411,-324C411,-324 291,-324 291,-324 285,-324 279,-318 279,-312 279,-312 279,-300 279,-300 279,-294 285,-288 291,-288 291,-288 411,-288 411,-288 417,-288 423,-294 423,-300 423,-300 423,-312 423,-312 423,-318 417,-324 411,-324"/>
<text text-anchor="middle" x="351" y="-303.5" font-family="sans" font-size="10.00" fill="#000000">stringtie_initial</text>
</g>
<!-- 12&#45;&gt;21 -->
<g id="edge36" class="edge">
<title>12&#45;&gt;21</title>
<path fill="none" stroke="#c0c0c0" stroke-width="2" d="M353.243,-359.8314C352.9221,-352.131 352.5406,-342.9743 352.184,-334.4166"/>
<polygon fill="#c0c0c0" stroke="#c0c0c0" stroke-width="2" points="355.6806,-334.2589 351.7672,-324.4133 348.6867,-334.5503 355.6806,-334.2589"/>
</g>
<!-- 13 -->
<g id="node14" class="node">
<title>13</title>
<path fill="none" stroke="#5682d8" stroke-width="2" stroke-dasharray="5,2" d="M111,-396C111,-396 21,-396 21,-396 15,-396 9,-390 9,-384 9,-384 9,-372 9,-372 9,-366 15,-360 21,-360 21,-360 111,-360 111,-360 117,-360 123,-366 123,-372 123,-372 123,-384 123,-384 123,-390 117,-396 111,-396"/>
<text text-anchor="middle" x="66" y="-375.5" font-family="sans" font-size="10.00" fill="#000000">samtools_sort</text>
</g>
<!-- 13&#45;&gt;2 -->
<g id="edge14" class="edge">
<title>13&#45;&gt;2</title>
<path fill="none" stroke="#c0c0c0" stroke-width="2" d="M71.7575,-359.7711C78.4134,-340.5884 90.7141,-310.1612 108,-288 140.8933,-245.8296 190.4061,-208.7414 224.5775,-185.916"/>
<polygon fill="#c0c0c0" stroke="#c0c0c0" stroke-width="2" points="226.918,-188.5657 233.348,-180.1451 223.0703,-182.718 226.918,-188.5657"/>
</g>
<!-- 22 -->
<g id="node23" class="node">
<title>22</title>
<path fill="none" stroke="#d8ac56" stroke-width="2" stroke-dasharray="5,2" d="M249,-324C249,-324 129,-324 129,-324 123,-324 117,-318 117,-312 117,-312 117,-300 117,-300 117,-294 123,-288 129,-288 129,-288 249,-288 249,-288 255,-288 261,-294 261,-300 261,-300 261,-312 261,-312 261,-318 255,-324 249,-324"/>
<text text-anchor="middle" x="189" y="-303.5" font-family="sans" font-size="10.00" fill="#000000">stringtie_initial</text>
</g>
<!-- 13&#45;&gt;22 -->
<g id="edge37" class="edge">
<title>13&#45;&gt;22</title>
<path fill="none" stroke="#c0c0c0" stroke-width="2" d="M97.0381,-359.8314C112.7705,-350.6221 132.0611,-339.3301 148.9044,-329.4706"/>
<polygon fill="#c0c0c0" stroke="#c0c0c0" stroke-width="2" points="151.1098,-332.2352 157.9718,-324.1628 147.5735,-326.1941 151.1098,-332.2352"/>
</g>
<!-- 14 -->
<g id="node15" class="node">
<title>14</title>
<path fill="none" stroke="#5682d8" stroke-width="2" stroke-dasharray="5,2" d="M558,-396C558,-396 468,-396 468,-396 462,-396 456,-390 456,-384 456,-384 456,-372 456,-372 456,-366 462,-360 468,-360 468,-360 558,-360 558,-360 564,-360 570,-366 570,-372 570,-372 570,-384 570,-384 570,-390 564,-396 558,-396"/>
<text text-anchor="middle" x="513" y="-375.5" font-family="sans" font-size="10.00" fill="#000000">samtools_sort</text>
</g>
<!-- 14&#45;&gt;3 -->
<g id="edge16" class="edge">
<title>14&#45;&gt;3</title>
<path fill="none" stroke="#c0c0c0" stroke-width="2" d="M566.7815,-359.8786C584.2319,-351.5112 602.132,-339.8292 614,-324 643.5555,-284.5797 648.7732,-225.3011 648.9956,-190.4431"/>
<polygon fill="#c0c0c0" stroke="#c0c0c0" stroke-width="2" points="652.4925,-190.013 648.9168,-180.0398 645.4927,-190.0661 652.4925,-190.013"/>
</g>
<!-- 23 -->
<g id="node24" class="node">
<title>23</title>
<path fill="none" stroke="#d8ac56" stroke-width="2" stroke-dasharray="5,2" d="M573,-324C573,-324 453,-324 453,-324 447,-324 441,-318 441,-312 441,-312 441,-300 441,-300 441,-294 447,-288 453,-288 453,-288 573,-288 573,-288 579,-288 585,-294 585,-300 585,-300 585,-312 585,-312 585,-318 579,-324 573,-324"/>
<text text-anchor="middle" x="513" y="-303.5" font-family="sans" font-size="10.00" fill="#000000">stringtie_initial</text>
</g>
<!-- 14&#45;&gt;23 -->
<g id="edge38" class="edge">
<title>14&#45;&gt;23</title>
<path fill="none" stroke="#c0c0c0" stroke-width="2" d="M513,-359.8314C513,-352.131 513,-342.9743 513,-334.4166"/>
<polygon fill="#c0c0c0" stroke="#c0c0c0" stroke-width="2" points="516.5001,-334.4132 513,-324.4133 509.5001,-334.4133 516.5001,-334.4132"/>
</g>
<!-- 15 -->
<g id="node16" class="node">
<title>15</title>
<path fill="none" stroke="#59d856" stroke-width="2" stroke-dasharray="5,2" d="M849,-252C849,-252 691,-252 691,-252 685,-252 679,-246 679,-240 679,-240 679,-228 679,-228 679,-222 685,-216 691,-216 691,-216 849,-216 849,-216 855,-216 861,-222 861,-228 861,-228 861,-240 861,-240 861,-246 855,-252 849,-252"/>
<text text-anchor="middle" x="770" y="-237" font-family="sans" font-size="10.00" fill="#000000">fastq_merge</text>
<text text-anchor="middle" x="770" y="-226" font-family="sans" font-size="10.00" fill="#000000">sample: ERR188044_chrX</text>
</g>
<!-- 15&#45;&gt;5 -->
<g id="edge18" class="edge">
<title>15&#45;&gt;5</title>
<path fill="none" stroke="#c0c0c0" stroke-width="2" d="M770.757,-215.8314C771.0779,-208.131 771.4594,-198.9743 771.816,-190.4166"/>
<polygon fill="#c0c0c0" stroke="#c0c0c0" stroke-width="2" points="775.3133,-190.5503 772.2328,-180.4133 768.3194,-190.2589 775.3133,-190.5503"/>
</g>
<!-- 16 -->
<g id="node17" class="node">
<title>16</title>
<path fill="none" stroke="#59d856" stroke-width="2" stroke-dasharray="5,2" d="M1049,-252C1049,-252 891,-252 891,-252 885,-252 879,-246 879,-240 879,-240 879,-228 879,-228 879,-222 885,-216 891,-216 891,-216 1049,-216 1049,-216 1055,-216 1061,-222 1061,-228 1061,-228 1061,-240 1061,-240 1061,-246 1055,-252 1049,-252"/>
<text text-anchor="middle" x="970" y="-237" font-family="sans" font-size="10.00" fill="#000000">fastq_merge</text>
<text text-anchor="middle" x="970" y="-226" font-family="sans" font-size="10.00" fill="#000000">sample: ERR188104_chrX</text>
</g>
<!-- 16&#45;&gt;6 -->
<g id="edge19" class="edge">
<title>16&#45;&gt;6</title>
<path fill="none" stroke="#c0c0c0" stroke-width="2" d="M940.476,-215.8314C925.5109,-206.6221 907.1614,-195.3301 891.1397,-185.4706"/>
<polygon fill="#c0c0c0" stroke="#c0c0c0" stroke-width="2" points="892.8655,-182.423 882.5146,-180.1628 889.1968,-188.3847 892.8655,-182.423"/>
</g>
<!-- 17 -->
<g id="node18" class="node">
<title>17</title>
<path fill="none" stroke="#59d856" stroke-width="2" stroke-dasharray="5,2" d="M1249,-252C1249,-252 1091,-252 1091,-252 1085,-252 1079,-246 1079,-240 1079,-240 1079,-228 1079,-228 1079,-222 1085,-216 1091,-216 1091,-216 1249,-216 1249,-216 1255,-216 1261,-222 1261,-228 1261,-228 1261,-240 1261,-240 1261,-246 1255,-252 1249,-252"/>
<text text-anchor="middle" x="1170" y="-237" font-family="sans" font-size="10.00" fill="#000000">fastq_merge</text>
<text text-anchor="middle" x="1170" y="-226" font-family="sans" font-size="10.00" fill="#000000">sample: ERR188234_chrX</text>
</g>
<!-- 17&#45;&gt;7 -->
<g id="edge20" class="edge">
<title>17&#45;&gt;7</title>
<path fill="none" stroke="#c0c0c0" stroke-width="2" d="M1110.5008,-215.9243C1067.8311,-202.9614 1011.4588,-185.8356 973.8034,-174.396"/>
<polygon fill="#c0c0c0" stroke="#c0c0c0" stroke-width="2" points="974.7658,-171.0304 964.1801,-171.4724 972.7309,-177.7282 974.7658,-171.0304"/>
</g>
<!-- 18 -->
<g id="node19" class="node">
<title>18</title>
<path fill="none" stroke="#afd856" stroke-width="2" stroke-dasharray="5,2" d="M382,-468C382,-468 224,-468 224,-468 218,-468 212,-462 212,-456 212,-456 212,-444 212,-444 212,-438 218,-432 224,-432 224,-432 382,-432 382,-432 388,-432 394,-438 394,-444 394,-444 394,-456 394,-456 394,-462 388,-468 382,-468"/>
<text text-anchor="middle" x="303" y="-453" font-family="sans" font-size="10.00" fill="#000000">hisat2</text>
<text text-anchor="middle" x="303" y="-442" font-family="sans" font-size="10.00" fill="#000000">sample: ERR188044_chrX</text>
</g>
<!-- 18&#45;&gt;9 -->
<g id="edge24" class="edge">
<title>18&#45;&gt;9</title>
<path fill="none" stroke="#c0c0c0" stroke-width="2" d="M279.5322,-431.8314C267.9673,-422.8779 253.8596,-411.9558 241.3817,-402.2955"/>
<polygon fill="#c0c0c0" stroke="#c0c0c0" stroke-width="2" points="243.5102,-399.5171 233.4603,-396.1628 239.225,-405.0521 243.5102,-399.5171"/>
</g>
<!-- 18&#45;&gt;12 -->
<g id="edge33" class="edge">
<title>18&#45;&gt;12</title>
<path fill="none" stroke="#c0c0c0" stroke-width="2" d="M315.8695,-431.8314C321.6835,-423.6232 328.6696,-413.7606 335.0646,-404.7323"/>
<polygon fill="#c0c0c0" stroke="#c0c0c0" stroke-width="2" points="338.0331,-406.5966 340.9573,-396.4133 332.321,-402.5505 338.0331,-406.5966"/>
</g>
<!-- 19 -->
<g id="node20" class="node">
<title>19</title>
<path fill="none" stroke="#afd856" stroke-width="2" stroke-dasharray="5,2" d="M170,-468C170,-468 12,-468 12,-468 6,-468 0,-462 0,-456 0,-456 0,-444 0,-444 0,-438 6,-432 12,-432 12,-432 170,-432 170,-432 176,-432 182,-438 182,-444 182,-444 182,-456 182,-456 182,-462 176,-468 170,-468"/>
<text text-anchor="middle" x="91" y="-453" font-family="sans" font-size="10.00" fill="#000000">hisat2</text>
<text text-anchor="middle" x="91" y="-442" font-family="sans" font-size="10.00" fill="#000000">sample: ERR188104_chrX</text>
</g>
<!-- 19&#45;&gt;9 -->
<g id="edge25" class="edge">
<title>19&#45;&gt;9</title>
<path fill="none" stroke="#c0c0c0" stroke-width="2" d="M121.0287,-431.8314C136.2496,-422.6221 154.9128,-411.3301 171.2083,-401.4706"/>
<polygon fill="#c0c0c0" stroke="#c0c0c0" stroke-width="2" points="173.2369,-404.3341 179.9809,-396.1628 169.6132,-398.345 173.2369,-404.3341"/>
</g>
<!-- 19&#45;&gt;13 -->
<g id="edge34" class="edge">
<title>19&#45;&gt;13</title>
<path fill="none" stroke="#c0c0c0" stroke-width="2" d="M84.6914,-431.8314C81.9883,-424.0463 78.7684,-414.7729 75.769,-406.1347"/>
<polygon fill="#c0c0c0" stroke="#c0c0c0" stroke-width="2" points="78.98,-404.7119 72.3935,-396.4133 72.3673,-407.0081 78.98,-404.7119"/>
</g>
<!-- 20 -->
<g id="node21" class="node">
<title>20</title>
<path fill="none" stroke="#afd856" stroke-width="2" stroke-dasharray="5,2" d="M588,-468C588,-468 430,-468 430,-468 424,-468 418,-462 418,-456 418,-456 418,-444 418,-444 418,-438 424,-432 430,-432 430,-432 588,-432 588,-432 594,-432 600,-438 600,-444 600,-444 600,-456 600,-456 600,-462 594,-468 588,-468"/>
<text text-anchor="middle" x="509" y="-453" font-family="sans" font-size="10.00" fill="#000000">hisat2</text>
<text text-anchor="middle" x="509" y="-442" font-family="sans" font-size="10.00" fill="#000000">sample: ERR188234_chrX</text>
</g>
<!-- 20&#45;&gt;9 -->
<g id="edge26" class="edge">
<title>20&#45;&gt;9</title>
<path fill="none" stroke="#c0c0c0" stroke-width="2" d="M433.9356,-431.9243C389.6285,-421.255 333.6105,-407.7657 288.6864,-396.9479"/>
<polygon fill="#c0c0c0" stroke="#c0c0c0" stroke-width="2" points="289.2353,-393.4801 278.6937,-394.5416 287.5964,-400.2856 289.2353,-393.4801"/>
</g>
<!-- 20&#45;&gt;14 -->
<g id="edge35" class="edge">
<title>20&#45;&gt;14</title>
<path fill="none" stroke="#c0c0c0" stroke-width="2" d="M510.0094,-431.8314C510.4372,-424.131 510.9459,-414.9743 511.4213,-406.4166"/>
<polygon fill="#c0c0c0" stroke="#c0c0c0" stroke-width="2" points="514.9169,-406.592 511.977,-396.4133 507.9276,-406.2037 514.9169,-406.592"/>
</g>
<!-- 21&#45;&gt;11 -->
<g id="edge30" class="edge">
<title>21&#45;&gt;11</title>
<path fill="none" stroke="#c0c0c0" stroke-width="2" d="M356.8039,-287.8314C359.2908,-280.0463 362.2531,-270.7729 365.0125,-262.1347"/>
<polygon fill="#c0c0c0" stroke="#c0c0c0" stroke-width="2" points="368.409,-263.0041 368.118,-252.4133 361.7409,-260.874 368.409,-263.0041"/>
</g>
<!-- 22&#45;&gt;11 -->
<g id="edge31" class="edge">
<title>22&#45;&gt;11</title>
<path fill="none" stroke="#c0c0c0" stroke-width="2" d="M235.6833,-287.8314C260.7559,-278.0734 291.8367,-265.977 318.1809,-255.7242"/>
<polygon fill="#c0c0c0" stroke="#c0c0c0" stroke-width="2" points="319.6027,-258.9266 327.6524,-252.038 317.0638,-252.4033 319.6027,-258.9266"/>
</g>
<!-- 23&#45;&gt;11 -->
<g id="edge32" class="edge">
<title>23&#45;&gt;11</title>
<path fill="none" stroke="#c0c0c0" stroke-width="2" d="M477.9244,-287.8314C459.7339,-278.4089 437.3342,-266.8062 417.994,-256.7883"/>
<polygon fill="#c0c0c0" stroke="#c0c0c0" stroke-width="2" points="419.5537,-253.6545 409.0643,-252.1628 416.334,-259.8701 419.5537,-253.6545"/>
</g>
</g>
</svg>
