<?xml version="1.0" encoding="UTF-8" standalone="no"?>
<!DOCTYPE svg PUBLIC "-//W3C//DTD SVG 1.1//EN"
 "http://www.w3.org/Graphics/SVG/1.1/DTD/svg11.dtd">
<!-- Generated by graphviz version 2.40.1 (20161225.0304)
 -->
<!-- Title: snakemake_dag Pages: 1 -->
<svg width="1294pt" height="548pt"
 viewBox="0.00 0.00 1293.65 548.00" xmlns="http://www.w3.org/2000/svg" xmlns:xlink="http://www.w3.org/1999/xlink">
<g id="graph0" class="graph" transform="scale(1 1) rotate(0) translate(4 544)">
<title>snakemake_dag</title>
<polygon fill="#ffffff" stroke="transparent" points="-4,4 -4,-544 1289.6518,-544 1289.6518,4 -4,4"/>
<!-- 0 -->
<g id="node1" class="node">
<title>0</title>
<path fill="none" stroke="#70d856" stroke-width="2" d="M684.3516,-36C684.3516,-36 654.3516,-36 654.3516,-36 648.3516,-36 642.3516,-30 642.3516,-24 642.3516,-24 642.3516,-12 642.3516,-12 642.3516,-6 648.3516,0 654.3516,0 654.3516,0 684.3516,0 684.3516,0 690.3516,0 696.3516,-6 696.3516,-12 696.3516,-12 696.3516,-24 696.3516,-24 696.3516,-30 690.3516,-36 684.3516,-36"/>
<text text-anchor="middle" x="669.3516" y="-15.5" font-family="sans" font-size="10.00" fill="#000000">all</text>
</g>
<!-- 1 -->
<g id="node2" class="node">
<title>1</title>
<path fill="none" stroke="#56d89a" stroke-width="2" stroke-dasharray="5,2" d="M725.3516,-180C725.3516,-180 597.3516,-180 597.3516,-180 591.3516,-180 585.3516,-174 585.3516,-168 585.3516,-168 585.3516,-156 585.3516,-156 585.3516,-150 591.3516,-144 597.3516,-144 597.3516,-144 725.3516,-144 725.3516,-144 731.3516,-144 737.3516,-150 737.3516,-156 737.3516,-156 737.3516,-168 737.3516,-168 737.3516,-174 731.3516,-180 725.3516,-180"/>
<text text-anchor="middle" x="661.3516" y="-159.5" font-family="sans" font-size="10.00" fill="#000000">stringtie_ballgown</text>
</g>
<!-- 1&#45;&gt;0 -->
<g id="edge1" class="edge">
<title>1&#45;&gt;0</title>
<path fill="none" stroke="#c0c0c0" stroke-width="2" d="M635.0953,-143.8151C624.0093,-134.5285 612.3058,-122.1902 606.3516,-108 600.1609,-93.2462 599.6658,-86.5362 606.3516,-72 612.2995,-59.0678 623.0419,-48.0737 633.9914,-39.4482"/>
<polygon fill="#c0c0c0" stroke="#c0c0c0" stroke-width="2" points="636.3434,-42.0633 642.3289,-33.3211 632.1982,-36.4226 636.3434,-42.0633"/>
</g>
<!-- 5 -->
<g id="node6" class="node">
<title>5</title>
<path fill="none" stroke="#d88556" stroke-width="2" stroke-dasharray="5,2" d="M710.8516,-108C710.8516,-108 627.8516,-108 627.8516,-108 621.8516,-108 615.8516,-102 615.8516,-96 615.8516,-96 615.8516,-84 615.8516,-84 615.8516,-78 621.8516,-72 627.8516,-72 627.8516,-72 710.8516,-72 710.8516,-72 716.8516,-72 722.8516,-78 722.8516,-84 722.8516,-84 722.8516,-96 722.8516,-96 722.8516,-102 716.8516,-108 710.8516,-108"/>
<text text-anchor="middle" x="669.3516" y="-87.5" font-family="sans" font-size="10.00" fill="#000000">count_tables</text>
</g>
<!-- 1&#45;&gt;5 -->
<g id="edge21" class="edge">
<title>1&#45;&gt;5</title>
<path fill="none" stroke="#c0c0c0" stroke-width="2" d="M663.3703,-143.8314C664.2259,-136.131 665.2433,-126.9743 666.1942,-118.4166"/>
<polygon fill="#c0c0c0" stroke="#c0c0c0" stroke-width="2" points="669.6798,-118.7386 667.3056,-108.4133 662.7226,-117.9656 669.6798,-118.7386"/>
</g>
<!-- 2 -->
<g id="node3" class="node">
<title>2</title>
<path fill="none" stroke="#56d89a" stroke-width="2" stroke-dasharray="5,2" d="M971.3516,-180C971.3516,-180 843.3516,-180 843.3516,-180 837.3516,-180 831.3516,-174 831.3516,-168 831.3516,-168 831.3516,-156 831.3516,-156 831.3516,-150 837.3516,-144 843.3516,-144 843.3516,-144 971.3516,-144 971.3516,-144 977.3516,-144 983.3516,-150 983.3516,-156 983.3516,-156 983.3516,-168 983.3516,-168 983.3516,-174 977.3516,-180 971.3516,-180"/>
<text text-anchor="middle" x="907.3516" y="-159.5" font-family="sans" font-size="10.00" fill="#000000">stringtie_ballgown</text>
</g>
<!-- 2&#45;&gt;0 -->
<g id="edge2" class="edge">
<title>2&#45;&gt;0</title>
<path fill="none" stroke="#c0c0c0" stroke-width="2" d="M920.9931,-143.8287C933.9887,-124.1298 949.2625,-92.7359 932.3516,-72 904.3062,-37.6112 772.4956,-24.5048 706.7847,-20.046"/>
<polygon fill="#c0c0c0" stroke="#c0c0c0" stroke-width="2" points="706.6588,-16.5307 696.4542,-19.3795 706.208,-23.5161 706.6588,-16.5307"/>
</g>
<!-- 2&#45;&gt;5 -->
<g id="edge22" class="edge">
<title>2&#45;&gt;5</title>
<path fill="none" stroke="#c0c0c0" stroke-width="2" d="M847.6013,-143.9243C812.6115,-133.3392 768.4465,-119.9783 732.8324,-109.2043"/>
<polygon fill="#c0c0c0" stroke="#c0c0c0" stroke-width="2" points="733.6139,-105.7841 723.0288,-106.2385 731.5869,-112.4842 733.6139,-105.7841"/>
</g>
<!-- 3 -->
<g id="node4" class="node">
<title>3</title>
<path fill="none" stroke="#d85656" stroke-width="2" d="M911.3516,-108C911.3516,-108 753.3516,-108 753.3516,-108 747.3516,-108 741.3516,-102 741.3516,-96 741.3516,-96 741.3516,-84 741.3516,-84 741.3516,-78 747.3516,-72 753.3516,-72 753.3516,-72 911.3516,-72 911.3516,-72 917.3516,-72 923.3516,-78 923.3516,-84 923.3516,-84 923.3516,-96 923.3516,-96 923.3516,-102 917.3516,-108 911.3516,-108"/>
<text text-anchor="middle" x="832.3516" y="-87.5" font-family="sans" font-size="10.00" fill="#000000">gffcompare_transcripts</text>
</g>
<!-- 3&#45;&gt;0 -->
<g id="edge3" class="edge">
<title>3&#45;&gt;0</title>
<path fill="none" stroke="#c0c0c0" stroke-width="2" d="M791.2198,-71.8314C764.9607,-60.2323 731.2217,-45.3291 705.9035,-34.1457"/>
<polygon fill="#c0c0c0" stroke="#c0c0c0" stroke-width="2" points="707.2071,-30.8953 696.6456,-30.0563 704.3787,-37.2984 707.2071,-30.8953"/>
</g>
<!-- 4 -->
<g id="node5" class="node">
<title>4</title>
<path fill="none" stroke="#56d8c9" stroke-width="2" stroke-dasharray="5,2" d="M664.8516,-396C664.8516,-396 619.8516,-396 619.8516,-396 613.8516,-396 607.8516,-390 607.8516,-384 607.8516,-384 607.8516,-372 607.8516,-372 607.8516,-366 613.8516,-360 619.8516,-360 619.8516,-360 664.8516,-360 664.8516,-360 670.8516,-360 676.8516,-366 676.8516,-372 676.8516,-372 676.8516,-384 676.8516,-384 676.8516,-390 670.8516,-396 664.8516,-396"/>
<text text-anchor="middle" x="642.3516" y="-375.5" font-family="sans" font-size="10.00" fill="#000000">multiqc</text>
</g>
<!-- 4&#45;&gt;0 -->
<g id="edge4" class="edge">
<title>4&#45;&gt;0</title>
<path fill="none" stroke="#c0c0c0" stroke-width="2" d="M639.6206,-359.7914C636.6059,-341.4104 631.1281,-312.3389 623.3516,-288 602.8616,-223.8712 566.406,-210.584 576.3516,-144 581.2947,-110.9066 579.2227,-99.4535 598.3516,-72 607.5591,-58.7855 621.0032,-47.3957 633.7222,-38.5289"/>
<polygon fill="#c0c0c0" stroke="#c0c0c0" stroke-width="2" points="635.9544,-41.2481 642.3508,-32.802 632.0834,-35.4158 635.9544,-41.2481"/>
</g>
<!-- 5&#45;&gt;0 -->
<g id="edge5" class="edge">
<title>5&#45;&gt;0</title>
<path fill="none" stroke="#c0c0c0" stroke-width="2" d="M669.3516,-71.8314C669.3516,-64.131 669.3516,-54.9743 669.3516,-46.4166"/>
<polygon fill="#c0c0c0" stroke="#c0c0c0" stroke-width="2" points="672.8517,-46.4132 669.3516,-36.4133 665.8517,-46.4133 672.8517,-46.4132"/>
</g>
<!-- 6 -->
<g id="node7" class="node">
<title>6</title>
<path fill="none" stroke="#56b1d8" stroke-width="2" stroke-dasharray="5,2" d="M198.3516,-540C198.3516,-540 40.3516,-540 40.3516,-540 34.3516,-540 28.3516,-534 28.3516,-528 28.3516,-528 28.3516,-516 28.3516,-516 28.3516,-510 34.3516,-504 40.3516,-504 40.3516,-504 198.3516,-504 198.3516,-504 204.3516,-504 210.3516,-510 210.3516,-516 210.3516,-516 210.3516,-528 210.3516,-528 210.3516,-534 204.3516,-540 198.3516,-540"/>
<text text-anchor="middle" x="119.3516" y="-525" font-family="sans" font-size="10.00" fill="#000000">trimmomatic_pe</text>
<text text-anchor="middle" x="119.3516" y="-514" font-family="sans" font-size="10.00" fill="#000000">sample: ERR188104_chrX</text>
</g>
<!-- 6&#45;&gt;0 -->
<g id="edge6" class="edge">
<title>6&#45;&gt;0</title>
<path fill="none" stroke="#c0c0c0" stroke-width="2" d="M67.1469,-503.9048C49.8794,-495.4985 32.098,-483.7849 20.3516,-468 -4.0547,-435.203 1.3516,-418.8816 1.3516,-378 1.3516,-378 1.3516,-378 1.3516,-162 1.3516,-96.9615 491.4945,-37.6861 632.077,-22.0224"/>
<polygon fill="#c0c0c0" stroke="#c0c0c0" stroke-width="2" points="632.7832,-25.4658 642.3378,-20.8877 632.0137,-18.5082 632.7832,-25.4658"/>
</g>
<!-- 6&#45;&gt;4 -->
<g id="edge19" class="edge">
<title>6&#45;&gt;4</title>
<path fill="none" stroke="#c0c0c0" stroke-width="2" d="M117.4555,-503.7484C116.4228,-483.0581 118.3572,-449.8885 138.3516,-432 199.9182,-376.9178 426.2892,-405.5007 508.3516,-396 538.1993,-392.5444 571.7015,-388.0441 597.7407,-384.4078"/>
<polygon fill="#c0c0c0" stroke="#c0c0c0" stroke-width="2" points="598.2741,-387.8673 607.6898,-383.0099 597.3001,-380.9354 598.2741,-387.8673"/>
</g>
<!-- 11 -->
<g id="node12" class="node">
<title>11</title>
<path fill="none" stroke="#5682d8" stroke-width="2" stroke-dasharray="5,2" d="M369.3516,-468C369.3516,-468 159.3516,-468 159.3516,-468 153.3516,-468 147.3516,-462 147.3516,-456 147.3516,-456 147.3516,-444 147.3516,-444 147.3516,-438 153.3516,-432 159.3516,-432 159.3516,-432 369.3516,-432 369.3516,-432 375.3516,-432 381.3516,-438 381.3516,-444 381.3516,-444 381.3516,-456 381.3516,-456 381.3516,-462 375.3516,-468 369.3516,-468"/>
<text text-anchor="middle" x="264.3516" y="-453" font-family="sans" font-size="10.00" fill="#000000">fastqc</text>
<text text-anchor="middle" x="264.3516" y="-442" font-family="sans" font-size="10.00" fill="#000000">sample_read: ERR188104_chrX_1</text>
</g>
<!-- 6&#45;&gt;11 -->
<g id="edge27" class="edge">
<title>6&#45;&gt;11</title>
<path fill="none" stroke="#c0c0c0" stroke-width="2" d="M155.9412,-503.8314C175.0755,-494.3302 198.6745,-482.6121 218.9638,-472.5374"/>
<polygon fill="#c0c0c0" stroke="#c0c0c0" stroke-width="2" points="220.6251,-475.6203 228.025,-468.038 217.5118,-469.3506 220.6251,-475.6203"/>
</g>
<!-- 13 -->
<g id="node14" class="node">
<title>13</title>
<path fill="none" stroke="#5682d8" stroke-width="2" stroke-dasharray="5,2" d="M621.3516,-468C621.3516,-468 411.3516,-468 411.3516,-468 405.3516,-468 399.3516,-462 399.3516,-456 399.3516,-456 399.3516,-444 399.3516,-444 399.3516,-438 405.3516,-432 411.3516,-432 411.3516,-432 621.3516,-432 621.3516,-432 627.3516,-432 633.3516,-438 633.3516,-444 633.3516,-444 633.3516,-456 633.3516,-456 633.3516,-462 627.3516,-468 621.3516,-468"/>
<text text-anchor="middle" x="516.3516" y="-453" font-family="sans" font-size="10.00" fill="#000000">fastqc</text>
<text text-anchor="middle" x="516.3516" y="-442" font-family="sans" font-size="10.00" fill="#000000">sample_read: ERR188104_chrX_2</text>
</g>
<!-- 6&#45;&gt;13 -->
<g id="edge29" class="edge">
<title>6&#45;&gt;13</title>
<path fill="none" stroke="#c0c0c0" stroke-width="2" d="M210.4314,-505.4817C268.8724,-494.8829 345.0902,-481.06 406.8283,-469.8632"/>
<polygon fill="#c0c0c0" stroke="#c0c0c0" stroke-width="2" points="407.7841,-473.247 416.999,-468.0186 406.5349,-466.3593 407.7841,-473.247"/>
</g>
<!-- 15 -->
<g id="node16" class="node">
<title>15</title>
<path fill="none" stroke="#9fd856" stroke-width="2" stroke-dasharray="5,2" d="M79.3516,-468C79.3516,-468 41.3516,-468 41.3516,-468 35.3516,-468 29.3516,-462 29.3516,-456 29.3516,-456 29.3516,-444 29.3516,-444 29.3516,-438 35.3516,-432 41.3516,-432 41.3516,-432 79.3516,-432 79.3516,-432 85.3516,-432 91.3516,-438 91.3516,-444 91.3516,-444 91.3516,-456 91.3516,-456 91.3516,-462 85.3516,-468 79.3516,-468"/>
<text text-anchor="middle" x="60.3516" y="-447.5" font-family="sans" font-size="10.00" fill="#000000">hisat2</text>
</g>
<!-- 6&#45;&gt;15 -->
<g id="edge31" class="edge">
<title>6&#45;&gt;15</title>
<path fill="none" stroke="#c0c0c0" stroke-width="2" d="M104.4634,-503.8314C97.5986,-495.454 89.3215,-485.3531 81.8005,-476.1749"/>
<polygon fill="#c0c0c0" stroke="#c0c0c0" stroke-width="2" points="84.4857,-473.9297 75.4402,-468.4133 79.0713,-478.3665 84.4857,-473.9297"/>
</g>
<!-- 7 -->
<g id="node8" class="node">
<title>7</title>
<path fill="none" stroke="#56b1d8" stroke-width="2" stroke-dasharray="5,2" d="M1137.3516,-540C1137.3516,-540 979.3516,-540 979.3516,-540 973.3516,-540 967.3516,-534 967.3516,-528 967.3516,-528 967.3516,-516 967.3516,-516 967.3516,-510 973.3516,-504 979.3516,-504 979.3516,-504 1137.3516,-504 1137.3516,-504 1143.3516,-504 1149.3516,-510 1149.3516,-516 1149.3516,-516 1149.3516,-528 1149.3516,-528 1149.3516,-534 1143.3516,-540 1137.3516,-540"/>
<text text-anchor="middle" x="1058.3516" y="-525" font-family="sans" font-size="10.00" fill="#000000">trimmomatic_pe</text>
<text text-anchor="middle" x="1058.3516" y="-514" font-family="sans" font-size="10.00" fill="#000000">sample: ERR188234_chrX</text>
</g>
<!-- 7&#45;&gt;0 -->
<g id="edge7" class="edge">
<title>7&#45;&gt;0</title>
<path fill="none" stroke="#c0c0c0" stroke-width="2" d="M1149.3874,-507.7942C1196.7299,-498.5782 1248.0607,-485.0975 1264.3516,-468 1292.5526,-438.4025 1283.3516,-418.8816 1283.3516,-378 1283.3516,-378 1283.3516,-378 1283.3516,-162 1283.3516,-42.8715 839.7083,-22.2213 706.6393,-18.7067"/>
<polygon fill="#c0c0c0" stroke="#c0c0c0" stroke-width="2" points="706.6099,-15.2051 696.5266,-18.4573 706.4372,-22.2029 706.6099,-15.2051"/>
</g>
<!-- 7&#45;&gt;4 -->
<g id="edge20" class="edge">
<title>7&#45;&gt;4</title>
<path fill="none" stroke="#c0c0c0" stroke-width="2" d="M1005.0525,-503.9854C981.7652,-494.9192 954.7232,-482.7095 932.3516,-468 912.9126,-455.2187 914.9359,-442.8406 894.3516,-432 827.5456,-396.817 739.3154,-384.5539 686.9342,-380.2816"/>
<polygon fill="#c0c0c0" stroke="#c0c0c0" stroke-width="2" points="687.1877,-376.7909 676.9529,-379.5293 686.6615,-383.7711 687.1877,-376.7909"/>
</g>
<!-- 12 -->
<g id="node13" class="node">
<title>12</title>
<path fill="none" stroke="#5682d8" stroke-width="2" stroke-dasharray="5,2" d="M1163.3516,-468C1163.3516,-468 953.3516,-468 953.3516,-468 947.3516,-468 941.3516,-462 941.3516,-456 941.3516,-456 941.3516,-444 941.3516,-444 941.3516,-438 947.3516,-432 953.3516,-432 953.3516,-432 1163.3516,-432 1163.3516,-432 1169.3516,-432 1175.3516,-438 1175.3516,-444 1175.3516,-444 1175.3516,-456 1175.3516,-456 1175.3516,-462 1169.3516,-468 1163.3516,-468"/>
<text text-anchor="middle" x="1058.3516" y="-453" font-family="sans" font-size="10.00" fill="#000000">fastqc</text>
<text text-anchor="middle" x="1058.3516" y="-442" font-family="sans" font-size="10.00" fill="#000000">sample_read: ERR188234_chrX_1</text>
</g>
<!-- 7&#45;&gt;12 -->
<g id="edge28" class="edge">
<title>7&#45;&gt;12</title>
<path fill="none" stroke="#c0c0c0" stroke-width="2" d="M1058.3516,-503.8314C1058.3516,-496.131 1058.3516,-486.9743 1058.3516,-478.4166"/>
<polygon fill="#c0c0c0" stroke="#c0c0c0" stroke-width="2" points="1061.8517,-478.4132 1058.3516,-468.4133 1054.8517,-478.4133 1061.8517,-478.4132"/>
</g>
<!-- 14 -->
<g id="node15" class="node">
<title>14</title>
<path fill="none" stroke="#5682d8" stroke-width="2" stroke-dasharray="5,2" d="M873.3516,-468C873.3516,-468 663.3516,-468 663.3516,-468 657.3516,-468 651.3516,-462 651.3516,-456 651.3516,-456 651.3516,-444 651.3516,-444 651.3516,-438 657.3516,-432 663.3516,-432 663.3516,-432 873.3516,-432 873.3516,-432 879.3516,-432 885.3516,-438 885.3516,-444 885.3516,-444 885.3516,-456 885.3516,-456 885.3516,-462 879.3516,-468 873.3516,-468"/>
<text text-anchor="middle" x="768.3516" y="-453" font-family="sans" font-size="10.00" fill="#000000">fastqc</text>
<text text-anchor="middle" x="768.3516" y="-442" font-family="sans" font-size="10.00" fill="#000000">sample_read: ERR188234_chrX_2</text>
</g>
<!-- 7&#45;&gt;14 -->
<g id="edge30" class="edge">
<title>7&#45;&gt;14</title>
<path fill="none" stroke="#c0c0c0" stroke-width="2" d="M985.5466,-503.9243C944.5314,-493.7412 893.1692,-480.9892 850.6906,-470.4428"/>
<polygon fill="#c0c0c0" stroke="#c0c0c0" stroke-width="2" points="851.4836,-467.0335 840.9349,-468.0207 849.7968,-473.8272 851.4836,-467.0335"/>
</g>
<!-- 16 -->
<g id="node17" class="node">
<title>16</title>
<path fill="none" stroke="#9fd856" stroke-width="2" stroke-dasharray="5,2" d="M1243.3516,-468C1243.3516,-468 1205.3516,-468 1205.3516,-468 1199.3516,-468 1193.3516,-462 1193.3516,-456 1193.3516,-456 1193.3516,-444 1193.3516,-444 1193.3516,-438 1199.3516,-432 1205.3516,-432 1205.3516,-432 1243.3516,-432 1243.3516,-432 1249.3516,-432 1255.3516,-438 1255.3516,-444 1255.3516,-444 1255.3516,-456 1255.3516,-456 1255.3516,-462 1249.3516,-468 1243.3516,-468"/>
<text text-anchor="middle" x="1224.3516" y="-447.5" font-family="sans" font-size="10.00" fill="#000000">hisat2</text>
</g>
<!-- 7&#45;&gt;16 -->
<g id="edge32" class="edge">
<title>7&#45;&gt;16</title>
<path fill="none" stroke="#c0c0c0" stroke-width="2" d="M1101.0094,-503.9431C1123.3518,-494.4341 1151.3615,-482.4338 1183.6982,-468.2583"/>
<polygon fill="#c0c0c0" stroke="#c0c0c0" stroke-width="2" points="1185.184,-471.4285 1192.9324,-464.2027 1182.3691,-465.0194 1185.184,-471.4285"/>
</g>
<!-- 8 -->
<g id="node9" class="node">
<title>8</title>
<path fill="none" stroke="#ced856" stroke-width="2" stroke-dasharray="5,2" d="M855.8516,-252C855.8516,-252 750.8516,-252 750.8516,-252 744.8516,-252 738.8516,-246 738.8516,-240 738.8516,-240 738.8516,-228 738.8516,-228 738.8516,-222 744.8516,-216 750.8516,-216 750.8516,-216 855.8516,-216 855.8516,-216 861.8516,-216 867.8516,-222 867.8516,-228 867.8516,-228 867.8516,-240 867.8516,-240 867.8516,-246 861.8516,-252 855.8516,-252"/>
<text text-anchor="middle" x="803.3516" y="-231.5" font-family="sans" font-size="10.00" fill="#000000">stringtie_merge</text>
</g>
<!-- 8&#45;&gt;1 -->
<g id="edge8" class="edge">
<title>8&#45;&gt;1</title>
<path fill="none" stroke="#c0c0c0" stroke-width="2" d="M767.519,-215.8314C748.9359,-206.4089 726.0527,-194.8062 706.2951,-184.7883"/>
<polygon fill="#c0c0c0" stroke="#c0c0c0" stroke-width="2" points="707.6745,-181.5635 697.1727,-180.1628 704.5089,-187.8069 707.6745,-181.5635"/>
</g>
<!-- 8&#45;&gt;2 -->
<g id="edge10" class="edge">
<title>8&#45;&gt;2</title>
<path fill="none" stroke="#c0c0c0" stroke-width="2" d="M829.5951,-215.8314C842.651,-206.7927 858.605,-195.7476 872.6563,-186.0198"/>
<polygon fill="#c0c0c0" stroke="#c0c0c0" stroke-width="2" points="874.8867,-188.7326 881.1164,-180.1628 870.9022,-182.9773 874.8867,-188.7326"/>
</g>
<!-- 8&#45;&gt;3 -->
<g id="edge12" class="edge">
<title>8&#45;&gt;3</title>
<path fill="none" stroke="#c0c0c0" stroke-width="2" d="M807.0244,-215.7623C811.9926,-191.0928 820.9006,-146.8598 826.7181,-117.9731"/>
<polygon fill="#c0c0c0" stroke="#c0c0c0" stroke-width="2" points="830.1653,-118.5838 828.7085,-108.0896 823.3031,-117.2018 830.1653,-118.5838"/>
</g>
<!-- 9 -->
<g id="node10" class="node">
<title>9</title>
<path fill="none" stroke="#d8b456" stroke-width="2" stroke-dasharray="5,2" d="M487.3516,-396C487.3516,-396 397.3516,-396 397.3516,-396 391.3516,-396 385.3516,-390 385.3516,-384 385.3516,-384 385.3516,-372 385.3516,-372 385.3516,-366 391.3516,-360 397.3516,-360 397.3516,-360 487.3516,-360 487.3516,-360 493.3516,-360 499.3516,-366 499.3516,-372 499.3516,-372 499.3516,-384 499.3516,-384 499.3516,-390 493.3516,-396 487.3516,-396"/>
<text text-anchor="middle" x="442.3516" y="-375.5" font-family="sans" font-size="10.00" fill="#000000">samtools_sort</text>
</g>
<!-- 9&#45;&gt;1 -->
<g id="edge9" class="edge">
<title>9&#45;&gt;1</title>
<path fill="none" stroke="#c0c0c0" stroke-width="2" d="M442.1503,-359.8107C442.7961,-340.383 446.3841,-309.4914 461.3516,-288 495.9099,-238.3786 556.9446,-204.1365 602.5282,-184.0089"/>
<polygon fill="#c0c0c0" stroke="#c0c0c0" stroke-width="2" points="603.9174,-187.2215 611.7157,-180.0495 601.147,-180.793 603.9174,-187.2215"/>
</g>
<!-- 17 -->
<g id="node18" class="node">
<title>17</title>
<path fill="none" stroke="#56d86b" stroke-width="2" stroke-dasharray="5,2" d="M602.3516,-324C602.3516,-324 482.3516,-324 482.3516,-324 476.3516,-324 470.3516,-318 470.3516,-312 470.3516,-312 470.3516,-300 470.3516,-300 470.3516,-294 476.3516,-288 482.3516,-288 482.3516,-288 602.3516,-288 602.3516,-288 608.3516,-288 614.3516,-294 614.3516,-300 614.3516,-300 614.3516,-312 614.3516,-312 614.3516,-318 608.3516,-324 602.3516,-324"/>
<text text-anchor="middle" x="542.3516" y="-303.5" font-family="sans" font-size="10.00" fill="#000000">stringtie_initial</text>
</g>
<!-- 9&#45;&gt;17 -->
<g id="edge33" class="edge">
<title>9&#45;&gt;17</title>
<path fill="none" stroke="#c0c0c0" stroke-width="2" d="M467.5858,-359.8314C480.1395,-350.7927 495.4799,-339.7476 508.9907,-330.0198"/>
<polygon fill="#c0c0c0" stroke="#c0c0c0" stroke-width="2" points="511.0551,-332.8463 517.1254,-324.1628 506.965,-327.1655 511.0551,-332.8463"/>
</g>
<!-- 10 -->
<g id="node11" class="node">
<title>10</title>
<path fill="none" stroke="#d8b456" stroke-width="2" stroke-dasharray="5,2" d="M952.3516,-396C952.3516,-396 862.3516,-396 862.3516,-396 856.3516,-396 850.3516,-390 850.3516,-384 850.3516,-384 850.3516,-372 850.3516,-372 850.3516,-366 856.3516,-360 862.3516,-360 862.3516,-360 952.3516,-360 952.3516,-360 958.3516,-360 964.3516,-366 964.3516,-372 964.3516,-372 964.3516,-384 964.3516,-384 964.3516,-390 958.3516,-396 952.3516,-396"/>
<text text-anchor="middle" x="907.3516" y="-375.5" font-family="sans" font-size="10.00" fill="#000000">samtools_sort</text>
</g>
<!-- 10&#45;&gt;2 -->
<g id="edge11" class="edge">
<title>10&#45;&gt;2</title>
<path fill="none" stroke="#c0c0c0" stroke-width="2" d="M907.3516,-359.9555C907.3516,-322.3938 907.3516,-235.5541 907.3516,-190.4103"/>
<polygon fill="#c0c0c0" stroke="#c0c0c0" stroke-width="2" points="910.8517,-190.145 907.3516,-180.1451 903.8517,-190.1451 910.8517,-190.145"/>
</g>
<!-- 18 -->
<g id="node19" class="node">
<title>18</title>
<path fill="none" stroke="#56d86b" stroke-width="2" stroke-dasharray="5,2" d="M865.3516,-324C865.3516,-324 745.3516,-324 745.3516,-324 739.3516,-324 733.3516,-318 733.3516,-312 733.3516,-312 733.3516,-300 733.3516,-300 733.3516,-294 739.3516,-288 745.3516,-288 745.3516,-288 865.3516,-288 865.3516,-288 871.3516,-288 877.3516,-294 877.3516,-300 877.3516,-300 877.3516,-312 877.3516,-312 877.3516,-318 871.3516,-324 865.3516,-324"/>
<text text-anchor="middle" x="805.3516" y="-303.5" font-family="sans" font-size="10.00" fill="#000000">stringtie_initial</text>
</g>
<!-- 10&#45;&gt;18 -->
<g id="edge34" class="edge">
<title>10&#45;&gt;18</title>
<path fill="none" stroke="#c0c0c0" stroke-width="2" d="M881.6126,-359.8314C868.8078,-350.7927 853.1607,-339.7476 839.3796,-330.0198"/>
<polygon fill="#c0c0c0" stroke="#c0c0c0" stroke-width="2" points="841.2703,-327.0703 831.0822,-324.1628 837.2335,-332.7891 841.2703,-327.0703"/>
</g>
<!-- 11&#45;&gt;4 -->
<g id="edge13" class="edge">
<title>11&#45;&gt;4</title>
<path fill="none" stroke="#c0c0c0" stroke-width="2" d="M359.249,-431.9243C435.5823,-417.3846 539.4105,-397.6078 597.7699,-386.4917"/>
<polygon fill="#c0c0c0" stroke="#c0c0c0" stroke-width="2" points="598.6058,-389.8955 607.7743,-384.5861 597.296,-383.0192 598.6058,-389.8955"/>
</g>
<!-- 12&#45;&gt;4 -->
<g id="edge14" class="edge">
<title>12&#45;&gt;4</title>
<path fill="none" stroke="#c0c0c0" stroke-width="2" d="M954.1823,-431.9707C868.2352,-417.0952 750.4771,-396.714 687.0979,-385.7446"/>
<polygon fill="#c0c0c0" stroke="#c0c0c0" stroke-width="2" points="687.4838,-382.2594 677.0334,-384.0026 686.29,-389.1568 687.4838,-382.2594"/>
</g>
<!-- 13&#45;&gt;4 -->
<g id="edge15" class="edge">
<title>13&#45;&gt;4</title>
<path fill="none" stroke="#c0c0c0" stroke-width="2" d="M548.1467,-431.8314C564.4121,-422.5368 584.3901,-411.1208 601.7566,-401.1971"/>
<polygon fill="#c0c0c0" stroke="#c0c0c0" stroke-width="2" points="603.6207,-404.1631 610.5666,-396.1628 600.1477,-398.0854 603.6207,-404.1631"/>
</g>
<!-- 14&#45;&gt;4 -->
<g id="edge16" class="edge">
<title>14&#45;&gt;4</title>
<path fill="none" stroke="#c0c0c0" stroke-width="2" d="M736.5564,-431.8314C720.291,-422.5368 700.313,-411.1208 682.9465,-401.1971"/>
<polygon fill="#c0c0c0" stroke="#c0c0c0" stroke-width="2" points="684.5555,-398.0854 674.1365,-396.1628 681.0824,-404.1631 684.5555,-398.0854"/>
</g>
<!-- 15&#45;&gt;4 -->
<g id="edge17" class="edge">
<title>15&#45;&gt;4</title>
<path fill="none" stroke="#c0c0c0" stroke-width="2" d="M91.4425,-436.2144C96.0377,-434.5742 100.7688,-433.0962 105.3516,-432 280.2417,-390.1642 329.6401,-415.9752 508.3516,-396 538.2127,-392.6623 571.7149,-388.162 597.7508,-384.4962"/>
<polygon fill="#c0c0c0" stroke="#c0c0c0" stroke-width="2" points="598.2891,-387.955 607.6984,-383.0852 597.3059,-381.0244 598.2891,-387.955"/>
</g>
<!-- 15&#45;&gt;9 -->
<g id="edge25" class="edge">
<title>15&#45;&gt;9</title>
<path fill="none" stroke="#c0c0c0" stroke-width="2" d="M91.5176,-436.506C96.1018,-434.823 100.8099,-433.2555 105.3516,-432 197.0212,-406.6596 306.22,-391.8672 374.9293,-384.3576"/>
<polygon fill="#c0c0c0" stroke="#c0c0c0" stroke-width="2" points="375.6131,-387.8045 385.1829,-383.2582 374.8667,-380.8443 375.6131,-387.8045"/>
</g>
<!-- 16&#45;&gt;4 -->
<g id="edge18" class="edge">
<title>16&#45;&gt;4</title>
<path fill="none" stroke="#c0c0c0" stroke-width="2" d="M1193.2612,-434.8603C1190.2942,-433.7663 1187.2944,-432.7863 1184.3516,-432 1160.4148,-425.6046 812.3196,-393.4805 686.9414,-382.0474"/>
<polygon fill="#c0c0c0" stroke="#c0c0c0" stroke-width="2" points="687.1838,-378.5551 676.9075,-381.1332 686.5487,-385.5262 687.1838,-378.5551"/>
</g>
<!-- 16&#45;&gt;10 -->
<g id="edge26" class="edge">
<title>16&#45;&gt;10</title>
<path fill="none" stroke="#c0c0c0" stroke-width="2" d="M1193.1762,-435.1513C1190.227,-433.9962 1187.2546,-432.9225 1184.3516,-432 1114.3126,-409.7426 1031.2543,-395.0291 974.4773,-386.6602"/>
<polygon fill="#c0c0c0" stroke="#c0c0c0" stroke-width="2" points="974.9416,-383.191 964.5431,-385.2211 973.938,-390.1187 974.9416,-383.191"/>
</g>
<!-- 17&#45;&gt;8 -->
<g id="edge23" class="edge">
<title>17&#45;&gt;8</title>
<path fill="none" stroke="#c0c0c0" stroke-width="2" d="M607.876,-287.9243C644.6091,-277.791 690.5635,-265.114 728.6845,-254.5978"/>
<polygon fill="#c0c0c0" stroke="#c0c0c0" stroke-width="2" points="729.9953,-257.867 738.7044,-251.8337 728.1337,-251.1191 729.9953,-257.867"/>
</g>
<!-- 18&#45;&gt;8 -->
<g id="edge24" class="edge">
<title>18&#45;&gt;8</title>
<path fill="none" stroke="#c0c0c0" stroke-width="2" d="M804.8469,-287.8314C804.633,-280.131 804.3786,-270.9743 804.1409,-262.4166"/>
<polygon fill="#c0c0c0" stroke="#c0c0c0" stroke-width="2" points="807.6395,-262.3122 803.863,-252.4133 800.6422,-262.5066 807.6395,-262.3122"/>
</g>
</g>
</svg>
